<?xml version="1.0" encoding="UTF-8"?>
<svg id="Layer_1" data-name="Layer 1" xmlns="http://www.w3.org/2000/svg" viewBox="0 0 75 75">
  <defs>
    <style>
      .cls-1 {
        fill: #acb0b3;
      }

      .cls-2 {
        fill: #cfd3d6;
      }

      .cls-3 {
        fill: #7e8083;
      }

      .cls-4 {
        fill: #6e6e6e;
      }

      .cls-5 {
        fill: #95999c;
      }

      .cls-6 {
        fill: #9fa3a6;
      }

      .cls-7 {
        fill: #3b3b3b;
      }

      .cls-8 {
        fill: #b4bbbd;
      }

      .cls-9 {
        fill: #27282b;
      }

      .cls-10 {
        fill: #6c6c6f;
      }

      .cls-11 {
        fill: #c5c9cb;
      }

      .cls-12 {
        fill: #898b8e;
      }

      .cls-13 {
        fill: #b9bdc0;
      }

      .cls-14 {
        fill: #424345;
      }

      .cls-15 {
        fill: #767879;
      }

      .cls-16 {
        fill: #d9d9d9;
      }

      .cls-17 {
        fill: #fdfefe;
      }

      .cls-18 {
        fill: #8f9395;
      }

      .cls-19 {
        fill: #a5a9ac;
      }

      .cls-20 {
        fill: #343638;
      }
    </style>
  </defs>
  <rect class="cls-8" x="0" width="75" height="75"/>
  <rect class="cls-7" x="0" y="30" width="75" height="15"/>
  <rect class="cls-4" x="5" y="33.5" width="65" height="8" rx="4" ry="4"/>
  <g>
    <rect class="cls-16" x="17.39" y="7.51" width="40.23" height="15"/>
    <g>
      <path class="cls-17" d="M19.33,16.27c.07,0,.13,0,.2,0,.62-.05,1.12-.55,1.16-1.17,0-.06,0-.12,0-.18-.05-.67-.61-1.18-1.28-1.17s-1.21.55-1.23,1.22.49,1.24,1.16,1.3Z"/>
      <g>
        <path class="cls-10" d="M20.69,14.92s-.01,0-.01.01v.15s0,.01.02.01c-.04.63-.54,1.12-1.16,1.17,0-.01-.01-.02-.02-.02h-.15s-.02,0-.02.01c-.67-.06-1.18-.63-1.16-1.3s.56-1.21,1.23-1.22,1.24.5,1.28,1.17ZM19.35,13.84h-.06s-.01,0-.02,0,0,.02,0,.02c-.02,0-.05,0-.07,0,0,0-.02-.01-.03,0-.02,0-.03.01-.03.03h-.02s-.02,0-.02.01h-.03c-.06,0-.11.04-.16.08h0s-.03,0-.04.02c0,0,0,0-.02,0l-.15.1s-.08.06-.09.1c0,0,0,.01,0,.02,0,0-.01,0-.02.01-.04,0-.05.04-.08.07-.03.04-.08.07-.07.12v.04s0,.02,0,.02h-.03s-.03.05-.04.08l-.02.05s-.03.05-.04.07c-.01.03-.03.07-.01.09,0,0,0,.02,0,.03-.01,0-.02,0-.02,0v.04s-.02.31-.02.31c0,.02.01.03.02.03v.05s0,.02,0,.03v.04c0,.05,0,.09.04.14,0,.02,0,.05.04.05v.02s.01.05.04.05c0,0,.01.03.01.04,0,0,0,.02,0,.03,0,.02.03.02.03.03l.07.1s.05.09.1.1c.05.07.09.07.09.1,0,.04.04.05.08.07.05.03.09.08.15.1.27.11.57.13.85.06.04-.01.08-.05.13-.05.02,0,.02-.02.03-.03.21-.11.4-.25.53-.47l.11-.22s.04-.09.03-.15c.04-.15.03-.29.01-.44,0-.01,0-.04,0-.04v-.04s0-.04,0-.04c0-.01,0-.02-.03-.02,0,0,0-.02,0-.02,0-.02,0-.03-.02-.04l-.02-.07c-.04-.13-.11-.24-.21-.35-.02-.02-.03-.04-.05-.03,0-.02-.02-.02-.02-.03-.01-.02-.03-.05-.07-.05-.01,0-.03-.02-.04-.02,0-.03-.02-.03-.04-.04l-.06-.03-.07-.03s-.02-.03-.04-.04l-.2-.07s-.04,0-.06,0h-.02s-.02-.01-.04-.01c-.03,0-.06,0-.09,0-.05-.02-.11-.02-.15,0Z"/>
        <path class="cls-14" d="M19.53,16.27c-.07,0-.13,0-.2,0,0,0,.01-.01.02-.01h.15s.02,0,.02.02Z"/>
        <path class="cls-14" d="M20.69,15.1s-.02,0-.02-.01v-.15s0-.01.02-.01c0,.06,0,.12,0,.18Z"/>
        <path class="cls-12" d="M20.04,14.03s.03.01.04.02c0,.02,0,.04.03.04.1.1.21.2.29.32l.1.19s.02.03.03.03c0,0,0,.02,0,.02-.03.05.05.24.04.4-.02.21-.07.42-.19.59s-.27.31-.45.4c-.06.03-.13.03-.19.05-.26.08-.54.06-.79-.05,0,0-.13-.1-.16-.09,0,0-.02,0-.02,0,0-.04-.04-.03-.05-.05l-.11-.11-.06-.07c-.09-.06-.14-.22-.18-.33-.02-.07-.06-.14-.07-.22v-.29s.03-.1.02-.15c0,0,0-.02,0-.03.03-.06.06-.13.07-.17,0-.01,0-.03.01-.04,0,0,.02,0,.02,0s0-.01,0-.02v-.02s.04-.02.04-.04h0s.01-.01.02-.01c0,0,0-.02,0-.02h0s.03-.01.03-.02,0-.02,0-.03c0-.03.02-.06.05-.07.03,0,.07-.02.06-.06h0s.05-.04.05-.07c0,0,.02,0,.02,0l.15-.08s.02-.03.04-.03c.04,0,.07-.02.09-.05.07,0,.13-.03.19-.06h.34c.06-.01.14,0,.2.02l.2.07s.08.05.12.05ZM18.45,15.4s.02.03,0,.04c.03.12.11.22.21.31.05.05.08.12.15.14.04.02.07.05.1.06l.26.11c.09.04.2.05.21,0,.06,0,.12.01.17,0,.02.03.06,0,.09,0,.09,0,.16-.03.24-.07.07-.04.16-.06.22-.13.06-.07.13-.11.19-.17.17-.2.24-.44.24-.71,0-.1-.03-.18-.05-.26-.02-.06-.02-.12-.05-.18-.04-.06-.06-.13-.11-.18-.1-.12-.21-.23-.36-.31l-.26-.09c-.16-.06-.63-.01-.7.07-.03.03-.07.04-.11.06-.08.04-.12.11-.19.16-.08.06-.13.13-.18.22s-.13.27-.14.36c-.02.15-.01.4.04.55,0,.02,0,.04.03.03Z"/>
        <path class="cls-3" d="M20.56,14.66s0,.02,0,.02v.04s0,.02.03.02v.04s-.02.02-.01.03c0,0,.02.01.02,0,.02.14.03.29-.01.44.01.05,0,.1-.03.15l-.11.22c-.13.21-.32.36-.53.47-.07,0-.12.05-.19.06h-.14c-.26.04-.58.02-.77-.15h-.03s0-.03,0-.04c.03-.01.15.08.16.09.25.11.53.12.79.05.06-.02.13-.03.19-.05.19-.08.34-.23.45-.4s.17-.38.19-.59c.01-.15-.07-.35-.04-.4h.03Z"/>
        <path class="cls-3" d="M19.35,13.84s.11.02.15,0c.03,0,.06,0,.09,0,0,.01,0,.03.02.03,0,0,.01,0,.02-.01h.02s0,.01,0,.02.02,0,.02,0l.28.09.07.03v.04s-.07-.04-.11-.05l-.2-.07c-.06-.02-.14-.03-.2-.03h-.34c-.06.05-.12.07-.19.07-.02.03-.05.05-.09.05-.02,0-.03.02-.04.03l-.15.08c.03-.08.14-.06.13-.13,0,0,.01,0,.02,0,0,0,.02,0,.03,0,0,0,.01-.01.01-.02h0c.06,0,.18-.05.16-.08h.03s.01.02.02.01c0,0,0-.02,0-.02h.02s.05,0,.06-.02c.02,0,.05,0,.07,0,.01,0,.02,0,.03-.01h.06Z"/>
        <path class="cls-3" d="M18.32,14.73c0,.05,0,.1-.03.15v.29c0,.08.05.15.07.22.04.11.08.27.18.33l.06.07.11.11s.06.01.05.05l-.08-.02s-.04-.04-.09-.1c-.03-.04-.07-.09-.1-.1l-.07-.1s0-.04-.03-.05c0,0,0-.03-.01-.04,0-.02-.01-.05-.04-.05v-.02c0-.05-.03-.09-.05-.14v-.04s-.01-.01-.03-.01v-.04s.01-.01.01-.01c0,0,0-.02,0-.01h-.02s0-.05,0-.05v-.31s.02-.06.02-.06c0,0,0-.02,0-.03.01-.01.02-.02.04-.03Z"/>
        <path class="cls-15" d="M18.76,15.96s.02,0,.02,0c0,0,0,.03,0,.03h.03c.19.18.51.2.77.17h.14c.07-.02.13-.07.19-.07,0,0,0,.03-.03.03-.05,0-.08.04-.13.05-.28.07-.59.05-.85-.06-.06-.02-.1-.08-.15-.1-.03-.02-.08-.03-.08-.07l.08.02Z"/>
        <path class="cls-3" d="M20.13,14.07s.02.02.04.02c0,.03.04.05.07.05,0,0,.02,0,.02.03,0,.03.02.04.04.06l.13.17s.03.13.09.16l.02.07v.02s-.03-.01-.04-.03l-.1-.19c-.08-.12-.19-.22-.29-.32-.02,0-.03-.02-.03-.04l.05.02Z"/>
        <path class="cls-15" d="M18.28,14.79v.06s-.02.31-.02.31c-.01,0-.02,0-.02-.03v-.31s.02-.04.02-.04c0,0,.01-.01.02,0Z"/>
        <path class="cls-15" d="M19.96,13.96l-.28-.09s-.02,0-.02,0,0-.02,0-.02c.02,0,.04,0,.06,0l.2.07s.04.01.04.04Z"/>
        <path class="cls-15" d="M18.57,14.22v.03s-.05.04-.05.07c-.02,0-.04.02-.04.04h0s-.02.01-.02.02c0,0,0,.01,0,.02h0s-.04.01-.04.01c0-.05.04-.08.07-.12.03-.03.04-.07.08-.07Z"/>
        <path class="cls-15" d="M20.52,14.55c-.06-.03-.05-.11-.09-.16l-.13-.17s-.04-.03-.04-.06c.02,0,.04.02.05.03.1.1.18.22.21.35Z"/>
        <path class="cls-15" d="M18.83,13.99c.01.07-.09.05-.13.13,0,0-.02,0-.02,0-.03,0-.05.04-.05.06h0s-.04.01-.04.01c0-.05.05-.08.09-.1l.15-.1Z"/>
        <path class="cls-15" d="M18.34,15.47s-.03-.03-.04-.05c-.03-.05-.04-.09-.04-.14.01,0,.02,0,.02.01v.04c.03.05.05.09.05.14Z"/>
        <path class="cls-3" d="M18.32,14.71s.01-.08.02-.11l.02-.05h.03s-.04.1-.07.16Z"/>
        <path class="cls-15" d="M18.33,14.59s-.03.07-.02.11c0,0,0,.02,0,.03-.02,0-.03.01-.04.03-.02-.03,0-.06.01-.09.01-.03,0-.07.04-.07Z"/>
        <path class="cls-15" d="M19.05,13.89s-.1.08-.16.08c.04-.04.1-.08.16-.08Z"/>
        <path class="cls-15" d="M19.5,13.84s-.11.02-.15,0c.05-.01.11-.02.15,0Z"/>
        <path class="cls-15" d="M20.13,14.07l-.05-.02s-.03-.01-.04-.02v-.04s.05.03.05.03c.02,0,.04.01.04.04Z"/>
        <path class="cls-3" d="M18.64,14.19s-.03.05-.06.06v-.03s.01,0,.02-.01c0,0,0-.01,0-.02h.04Z"/>
        <path class="cls-15" d="M18.59,15.83c-.05-.01-.09-.06-.1-.1.04.01.07.06.1.1Z"/>
        <path class="cls-15" d="M20.24,14.14s-.07-.02-.07-.05c.04,0,.06.03.07.05Z"/>
        <path class="cls-15" d="M18.39,14.47s0,.02,0,.03c0,.01,0,.02-.01.04h-.03s0-.06.04-.06Z"/>
        <path class="cls-15" d="M20.59,14.75s-.03,0-.03-.02v-.04s.03,0,.03.02v.04Z"/>
        <path class="cls-15" d="M19.19,13.86s-.05.03-.06.02c0-.01.02-.02.03-.03.01,0,.02,0,.03,0Z"/>
        <path class="cls-15" d="M18.42,15.63s-.03,0-.03-.03c0,0,0-.02,0-.03.02,0,.03.03.03.05Z"/>
        <path class="cls-15" d="M18.38,15.54s-.04-.03-.04-.05c.03,0,.04.03.04.05Z"/>
        <path class="cls-3" d="M18.46,14.41s-.02.04-.04.04v-.04s.04,0,.04,0Z"/>
        <path class="cls-15" d="M20.56,14.66h-.03s0-.02,0-.02v-.02s.03.02.03.04Z"/>
        <path class="cls-15" d="M20.6,14.82s-.02,0-.02,0c0-.01,0-.03.01-.03.01,0,.02.03,0,.04Z"/>
        <path class="cls-15" d="M19.63,13.85s-.01.01-.02.01c-.02,0-.02-.01-.02-.03.01,0,.03,0,.04.01Z"/>
        <path class="cls-15" d="M18.89,13.96s0,.02-.01.02c0,0-.02,0-.03,0,0-.02.02-.02.04-.02Z"/>
        <path class="cls-15" d="M18.27,15.24s-.01-.02-.01-.03h.02s.01.01,0,.01h-.01Z"/>
        <path class="cls-15" d="M19.1,13.88s0,.02,0,.02c0,0-.02,0-.02-.01,0-.01.01-.01.02-.01Z"/>
        <path class="cls-3" d="M18.42,14.47s0,.01,0,.02-.01.01-.02,0c0,0,0-.02,0-.03h.03Z"/>
        <path class="cls-15" d="M19.29,13.85s-.02.01-.03.01c0,0,0-.02,0-.02s.02,0,.02.01Z"/>
        <path class="cls-5" d="M19.54,16.06c-.05.01-.12,0-.17,0h-.14s-.12-.06-.12-.06c-.09-.01-.16-.08-.24-.11-.05-.02-.06-.03-.1-.07-.12-.12-.23-.25-.32-.39.02-.01,0-.03,0-.04,0-.03-.04-.09-.03-.12,0-.14-.06-.29.02-.56l.09-.2c.02-.05.06-.08.09-.12.02-.02.02-.04.05-.04,0,.05-.04.06-.07.1-.02.03-.04.07-.05.1l-.06.11c-.04.12-.06.25-.06.38,0,.03.03.06.02.1-.01.06.01.1.03.16.02.06.02.13.06.17l.18.22.16.16c.08.08.24.13.35.15.23.04.45,0,.65-.1.06-.03.1-.08.15-.11.07-.05.14-.09.18-.17l.1-.15c.1-.16.13-.47.08-.68l-.03-.07c-.01-.08-.05-.13-.08-.19-.14-.26-.45-.47-.74-.51l-.34.02c.06-.04.14-.03.21-.04.1-.02.17-.01.26.02.2.07.34.13.49.28.18.17.28.39.29.65,0,.07.01.12,0,.19l-.02.15-.08.21-.1.16c-.08.13-.2.24-.33.29l-.21.08-.18.05Z"/>
        <path class="cls-18" d="M19.54,16.06l.18-.05.21-.08c.14-.06.26-.17.33-.29l.1-.16.08-.21.02-.15c.01-.07,0-.13,0-.19,0-.25-.11-.47-.29-.65-.15-.15-.29-.21-.49-.28-.09-.03-.16-.04-.26-.02-.07.01-.15,0-.21.04,0,0-.02,0-.03,0-.06.01-.13.02-.19.05-.05.03-.1.07-.16.09-.03,0-.04.04-.04.06,0,0-.01.01-.02.01-.03,0-.05.01-.05.04h0s-.01,0-.02,0c-.01,0,0,.02-.01.02,0,0-.02.01-.02.03-.03,0-.04.02-.05.04-.03.04-.07.07-.09.12l-.09.2c-.08.27-.01.42-.02.56,0,.03.04.09.03.12-.02,0-.02-.02-.03-.03-.05-.14-.06-.4-.04-.55.01-.08.09-.26.14-.36s.1-.16.18-.22c.07-.05.11-.12.19-.16.04-.02.08-.03.11-.06.07-.08.54-.13.7-.07l.26.09c.15.08.25.19.36.31.05.06.07.12.11.18s.04.11.05.18c.02.09.05.17.05.26,0,.26-.07.51-.24.71-.07.06-.14.1-.19.17-.05.07-.14.09-.22.13-.08.04-.15.06-.24.07-.03,0-.07.03-.09,0Z"/>
        <path class="cls-18" d="M19.37,16.07c0,.05-.11.05-.21,0l-.26-.11s-.06-.04-.1-.06c-.06-.03-.1-.09-.15-.14-.09-.09-.18-.2-.21-.31.09.14.2.27.32.39.03.04.05.05.1.07.08.03.15.09.24.11l.12.04h.14Z"/>
        <path class="cls-3" d="M18.64,14.18s.03-.05.05-.06c0,.03-.02.06-.05.06Z"/>
        <path class="cls-3" d="M18.52,14.31s0,.02,0,.03-.02.02-.03.01c0-.02.02-.04.04-.04Z"/>
        <path class="cls-3" d="M18.48,14.37s0,.02,0,.02c0,0-.01,0-.02,0,0,0,0-.01,0-.02,0,0,.01-.01.02,0Z"/>
        <path class="cls-6" d="M18.67,14.36s.02-.02.02-.03c0,0,.02,0,.03,0,0,0,0-.01,0-.02h0s.05-.02.05-.05c0,0,.01,0,.02-.01.03,0,.05-.02.07-.03.03-.02.06-.03.08-.05.08-.09.18-.07.23-.13.01,0,.02,0,.03,0l.34-.02c.29.04.6.25.74.51.03.06.07.12.08.19l.03.07c.05.21.02.52-.08.68l-.1.15c-.04.09-.11.12-.18.17-.05.04-.09.09-.15.11-.21.09-.43.14-.65.1-.12-.02-.27-.07-.35-.15l-.16-.16-.18-.22s-.04-.12-.06-.17c-.02-.05-.04-.1-.03-.16,0-.04-.02-.07-.02-.1,0-.13.01-.26.06-.38l.06-.11s.03-.07.05-.1c.02-.03.07-.05.07-.1ZM19.74,14.13h-.04s0-.02-.02-.03c-.19-.06-.38-.04-.57.03-.08.03-.16.04-.21.12-.08,0-.11.07-.15.11-.05.06-.1.1-.14.17-.02.03-.04.06-.05.1l-.02.1c-.01.06-.06.11-.06.17v.19c0,.07.02.14.04.21l.06.16.08.12c.04.06.09.11.15.16l.1.1.14.06c.05.02.12.06.18.06h.32c.14,0,.25-.08.38-.13l.11-.1c.07-.05.12-.11.17-.17.04-.05.06-.1.08-.16.12-.23.1-.58-.02-.81-.06-.11-.14-.2-.24-.28-.06-.05-.12-.1-.2-.12-.03,0-.06-.05-.09-.04Z"/>
        <path class="cls-5" d="M19.18,14.03c-.05.06-.15.04-.23.13-.02.03-.05.04-.08.05-.02.01-.04.04-.07.03,0-.02.01-.05.04-.06.06-.02.1-.06.16-.09.06-.04.13-.04.19-.05Z"/>
        <path class="cls-5" d="M18.78,14.26s-.03.05-.05.04c0-.03.03-.04.05-.04Z"/>
        <path class="cls-5" d="M18.72,14.3s0,.01,0,.02c0,0-.02.01-.03,0,0,0,0-.02.01-.02,0,0,.01,0,.02,0Z"/>
        <path class="cls-1" d="M19.71,14.13h.04s0,.03.03.04l.13.07s.18.16.21.19c.08.09.2.35.21.45,0,.06.01.15,0,.21s-.03.09-.01.15c0,.05-.05.13-.07.18-.04.1-.12.16-.18.24-.05.06-.1.1-.18.13l-.19.09-.18.03c-.1.02-.21,0-.31-.03s-.21-.08-.3-.14c-.07-.04-.12-.11-.17-.16-.1-.1-.15-.22-.18-.36-.05-.2-.02-.41.07-.6.03-.06.06-.14.11-.19.03-.03.06-.08.1-.1l.18-.13s.22-.08.24-.04c-.02.02-.04.04-.04.06-.02,0-.04,0-.06.02l-.22.12s-.07.04-.09.06l-.13.18-.07.18h-.02s-.03.02-.04.03c-.03.04-.04.1-.01.15.01.02.04.03.05.02v.16s.39,0,.39,0h.09c.09,0,.14.05.17.13v.1s-.05.01-.07,0v-.1s-.03-.07-.07-.07h-.34s-.08,0-.08,0c-.01,0-.03,0-.04,0,0,.01-.02.04-.01.05l.06.12c.04.07.1.12.15.18.07.09.24.21.34.18,0,.03,0,.1.05.1h.24s.09,0,.12-.03l.05-.05c.05,0,.1-.03.15-.05.16-.07.37-.31.38-.49,0-.02-.05-.01-.06-.01h-.08s-.36,0-.36,0c-.06,0-.06.07-.06.11,0,0,0-.02-.02-.03v.05s-.03.02-.04,0v-.09c0-.09.1-.12.18-.12h.2s.26,0,.26,0c0-.02,0-.04,0-.06.02,0,.03,0,.06,0v-.16s0-.08,0-.08c0-.04-.03-.06-.06-.05l-.02-.08s-.03-.06-.05-.08l-.07-.09c-.09-.13-.21-.24-.37-.28l-.08-.03s-.02-.08-.06-.08h-.3s.01-.05.04-.05c.22-.02.32.03.39.02ZM19.65,15.84h0s0,.01,0,.01h0s0-.01,0-.01Z"/>
        <path class="cls-19" d="M19.71,14.13c-.06,0-.17-.05-.39-.02-.03,0-.05.03-.04.05h-.01s-.2.01-.24.04l-.18.13s-.07.07-.1.1c-.05.05-.08.13-.11.19-.1.19-.12.4-.07.6.03.14.09.26.18.36.05.06.1.12.17.16.09.05.19.12.3.14s.21.05.31.03l.18-.03.19-.09c.07-.03.13-.07.18-.13.06-.08.14-.15.18-.24.02-.06.06-.13.07-.18-.02-.06,0-.09.01-.15s.01-.15,0-.21c0-.1-.13-.36-.21-.45-.03-.03-.2-.18-.21-.19l-.13-.07s-.03-.02-.03-.04c.03,0,.06.04.09.04.09.03.14.07.2.12.1.08.17.17.24.28.13.23.15.58.02.81-.03.05-.05.11-.08.16-.05.06-.1.13-.17.17l-.11.1c-.12.05-.23.13-.38.13h-.32c-.06,0-.12-.04-.18-.06l-.14-.06-.1-.1c-.05-.05-.11-.09-.15-.16l-.08-.12-.06-.16c-.03-.06-.04-.14-.04-.21v-.19c0-.06.04-.11.06-.17l.02-.1s.03-.07.05-.1c.04-.07.09-.11.14-.17.04-.05.06-.11.15-.11.05-.08.14-.09.21-.12.18-.07.38-.1.57-.03.02,0,.02.02.02.03Z"/>
        <path class="cls-2" d="M19.64,14.24v.04s0,.1,0,.1c.07-.01.1.04.14.07.12.07.22.14.26.27,0,.03.04.05.02.09h-.34s-.08-.05-.09-.08c-.01-.04-.02-.05-.06-.05v-.45s-.29,0-.29,0v.45s-.06.02-.06.03v.07c-.06.02-.13.02-.19.02h-.24c0-.07.05-.11.07-.16.02-.05.05-.06.08-.1.06-.06.12-.11.21-.15.02,0,.03-.06.07-.05v-.06s0-.08,0-.08c0-.02.02-.04.04-.06h.01s.3,0,.3,0c.05,0,.06.05.06.08Z"/>
        <path class="cls-2" d="M20.07,15.22s-.03.08-.05.11l-.06.11s-.08.06-.11.11l-.07.03s-.08.06-.13.07v-.23s0-.1,0-.1c0-.04,0-.11.06-.11h.36Z"/>
        <path class="cls-11" d="M19.23,14.29v.06s-.05.04-.07.05c-.08.03-.15.08-.21.15-.03.03-.07.04-.08.1-.02.05-.07.09-.07.16h.24c.06,0,.14,0,.19-.02v-.07s.04-.02.06-.03v.08s-.01,0-.01.01c0,.05-.06.07-.1.1h-.53c-.01.05,0,.09,0,.13-.02,0-.04,0-.05-.02-.03-.05-.02-.11.01-.15.01,0,.02,0,.03,0,0,0,.01-.02,0-.03h.02c.12-.06.07-.23.24-.32.05-.11.2-.15.32-.18Z"/>
        <path class="cls-11" d="M20.22,14.81s.06.01.06.05v.08s-.04.02-.06,0v-.08s-.41,0-.41,0h-.04c-.09.01-.19-.03-.2-.12v-.07s.05.02.06.05c0,.03.06.07.09.07h.34s-.01-.06-.02-.08c-.05-.13-.14-.21-.26-.27-.04-.02-.08-.08-.14-.07v-.1c.06,0,.11.04.17.07.05.03.11.04.15.09l.15.21.07.15s.03.01.04,0Z"/>
        <path class="cls-2" d="M19.22,15.4v.24s-.11-.04-.11-.04l-.13-.09c-.06-.04-.09-.08-.12-.14-.02-.05-.06-.09-.06-.14h.34s.07.03.07.07v.1Z"/>
        <path class="cls-13" d="M19.63,15.83s0-.07,0-.11l.16-.05.14-.1.08-.1s.02-.08.07-.1l.06-.16s.06,0,.06.01c0,.19-.22.42-.38.49-.04.02-.09.06-.15.05l-.05.05Z"/>
        <path class="cls-13" d="M18.73,15.23l.06.13c.04.08.08.15.15.2l.16.12.12.04v.05c-.11.02-.27-.09-.34-.18-.05-.06-.11-.11-.15-.18l-.06-.12s0-.04.01-.05c.01-.01.03,0,.04,0Z"/>
        <path class="cls-11" d="M20.15,15.22l-.06.16s-.04.07-.07.1l-.08.1-.14.1-.16.05s0,0,0,0v-.06c.05,0,.1-.04.14-.07l.07-.03c.03-.05.09-.07.11-.11l.06-.11s.05-.07.05-.11h.08Z"/>
        <path class="cls-11" d="M18.81,15.22c0,.05.04.1.06.14.03.06.06.1.12.14l.13.09.1.04s0,0,0,.01v.07s-.12-.04-.12-.04l-.16-.12c-.07-.05-.12-.12-.15-.2l-.06-.13h.08Z"/>
        <path class="cls-13" d="M19.23,14.22v.08c-.12.03-.28.07-.32.18-.17.09-.13.26-.24.31l.07-.18.13-.18s.06-.05.09-.06l.22-.12s.03-.03.06-.02Z"/>
        <path class="cls-13" d="M20.22,14.81s-.03,0-.04,0l-.07-.15-.15-.21s-.1-.06-.15-.09c-.06-.04-.11-.06-.17-.07v-.04s.08.03.08.03c.16.04.28.15.37.28l.07.09s.04.05.05.08l.02.08Z"/>
        <path class="cls-13" d="M20.29,14.94v.16s-.04,0-.06,0v-.16s.04,0,.06,0Z"/>
        <path class="cls-13" d="M18.65,14.79s0,.02,0,.03c-.01,0-.02,0-.03,0,.01-.01.02-.02.04-.03Z"/>
        <rect class="cls-13" x="19.64" y="15.84" width="0" height="0" transform="translate(-5.45 18.54) rotate(-45)"/>
        <g>
          <path class="cls-14" d="M19.55,14.72s.01.02.03.02c.01.09.11.14.2.12,0,.1,0,.25-.05.27h.03c-.08.01-.17.04-.18.13v.09s0,.07,0,.07c0,0-.01,0-.02,0,0,0,0,.02,0,.03l-.05-.04c-.05,0-.11-.01-.16,0-.01,0-.03.04-.04.03,0-.06.01-.12,0-.18-.03-.08-.08-.13-.17-.13-.02-.07-.02-.18.02-.25l-.12-.02h.13s.02-.02.03-.02c.04-.02.1-.04.1-.1h.01s.01-.04.01-.06c.08.01.17,0,.25,0Z"/>
          <path class="cls-20" d="M19.02,14.89l.12.02c-.04.07-.04.19-.02.25h-.09s0-.01,0-.01c0,0-.01,0-.02,0h-.24s.02-.03.03-.04c-.03-.09.01-.16-.04-.21h.25Z"/>
          <path class="cls-9" d="M20.23,14.94v.16s0,.04,0,.06h-.26s0-.04.01-.06c.03-.08-.01-.15.03-.21h-.17s-.01-.01-.01-.02h.4s0,.07,0,.07ZM20.21,14.89s-.06-.01-.09,0c0,0,0,0,0,0,.03,0,.05,0,.08,0Z"/>
          <path class="cls-9" d="M19.3,15.46v.15c.08-.03.21-.02.22,0s0,.03.03.05v-.19s0-.02.01-.03c0,0,.01,0,.02,0v.09s0,.2,0,.2v.08s-.29,0-.29,0v-.14s0-.27,0-.27v-.1c.02.06.01.12.01.18Z"/>
          <path class="cls-20" d="M19.82,14.87s0,.01.01.01h.17c-.05.06,0,.14-.03.21-.01.02-.02.05-.01.06h-.2s-.03-.02-.03-.02c.06-.02.05-.17.05-.27h.04Z"/>
          <path class="cls-9" d="M19.18,14.87s-.01.02-.03.02h-.13s-.25,0-.25,0c.05.05,0,.12.04.21-.02.01-.03.02-.03.04h.24s.02,0,.02,0c0,0,0,.01,0,.02h-.39s0-.16,0-.16c0-.04,0-.08,0-.13h.53Z"/>
          <path class="cls-12" d="M19.29,15.67v.14s.29,0,.29,0v-.08s.06,0,.06,0c0,0,0,0,0,0,0,.03,0,.07,0,.11-.03.03-.07.04-.12.04h-.24s-.05-.07-.05-.1v-.05s0-.07,0-.07c.02,0,.04.01.07.01Z"/>
          <path class="cls-5" d="M19.29,15.39v.27s-.05,0-.07-.01c0,0,0,0,0-.01v-.24s.05,0,.07,0Z"/>
          <path class="cls-6" d="M19.64,15.34v.1s-.01,0-.02,0c0,0,0,.02,0,.04v.04s-.02.01-.04,0v-.09s0-.07,0-.07c.01.01.03,0,.04,0v-.05s.02.02.03.03Z"/>
          <path class="cls-9" d="M19.58,14.68v.07s-.03-.01-.03-.02v-.33c-.08.02-.15,0-.24,0v.32s0,.03-.02.04v-.08s0-.45,0-.45h.29s0,.45,0,.45ZM19.31,14.24h-.01v.11h.01v-.11Z"/>
          <path class="cls-20" d="M19.55,14.72c-.08,0-.17,0-.25,0v-.32c.09,0,.17,0,.25,0v.33Z"/>
          <path class="cls-20" d="M19.55,15.47v.19s-.03-.04-.04-.05-.14-.02-.22,0v-.15s.03-.03.04-.03c.05-.01.11,0,.16,0l.05.04Z"/>
          <path class="cls-2" d="M19.28,14.77s0-.01.01-.01h-.01Z"/>
          <path class="cls-5" d="M19.64,15.44v.23s0,.06,0,.06h-.06s0-.2,0-.2c.01,0,.03,0,.03,0v-.04s0-.03.01-.04c0,0,.01,0,.02,0Z"/>
          <path class="cls-20" d="M20.21,14.89s-.06,0-.08,0c0,0,0,0,0,0,.03,0,.07-.01.09,0Z"/>
          <rect class="cls-20" x="19.3" y="14.24" width=".01" height=".11"/>
        </g>
      </g>
    </g>
    <g>
      <path class="cls-17" d="M55.46,16.27c.07,0,.13,0,.2,0,.62-.05,1.12-.55,1.16-1.17,0-.06,0-.12,0-.18-.05-.67-.61-1.18-1.28-1.17s-1.21.55-1.23,1.22.49,1.24,1.16,1.3Z"/>
      <g>
        <path class="cls-10" d="M56.83,14.92s-.01,0-.01.01v.15s0,.01.02.01c-.04.63-.54,1.12-1.16,1.17,0-.01-.01-.02-.02-.02h-.15s-.02,0-.02.01c-.67-.06-1.18-.63-1.16-1.3s.56-1.21,1.23-1.22,1.24.5,1.28,1.17ZM55.49,13.84h-.06s-.01,0-.02,0,0,.02,0,.02c-.02,0-.05,0-.07,0,0,0-.02-.01-.03,0-.02,0-.03.01-.03.03h-.02s-.02,0-.02.01h-.03c-.06,0-.11.04-.16.08h0s-.03,0-.04.02c0,0,0,0-.02,0l-.15.1s-.08.06-.09.1c0,0,0,.01,0,.02,0,0-.01,0-.02.01-.04,0-.05.04-.08.07-.03.04-.08.07-.07.12v.04s0,.02,0,.02h-.03s-.03.05-.04.08l-.02.05s-.03.05-.04.07c-.01.03-.03.07-.01.09,0,0,0,.02,0,.03-.01,0-.02,0-.02,0v.04s-.02.31-.02.31c0,.02.01.03.02.03v.05s0,.02,0,.03v.04c0,.05,0,.09.04.14,0,.02,0,.05.04.05v.02s.01.05.04.05c0,0,.01.03.01.04,0,0,0,.02,0,.03,0,.02.03.02.03.03l.07.1s.05.09.1.1c.05.07.09.07.09.1,0,.04.04.05.08.07.05.03.09.08.15.1.27.11.57.13.85.06.04-.01.08-.05.13-.05.02,0,.02-.02.03-.03.21-.11.4-.25.53-.47l.11-.22s.04-.09.03-.15c.04-.15.03-.29.01-.44,0-.01,0-.04,0-.04v-.04s0-.04,0-.04c0-.01,0-.02-.03-.02,0,0,0-.02,0-.02,0-.02,0-.03-.02-.04l-.02-.07c-.04-.13-.11-.24-.21-.35-.02-.02-.03-.04-.05-.03,0-.02-.02-.02-.02-.03-.01-.02-.03-.05-.07-.05-.01,0-.03-.02-.04-.02,0-.03-.02-.03-.04-.04l-.06-.03-.07-.03s-.02-.03-.04-.04l-.2-.07s-.04,0-.06,0h-.02s-.02-.01-.04-.01c-.03,0-.06,0-.09,0-.05-.02-.11-.02-.15,0Z"/>
        <path class="cls-14" d="M55.66,16.27c-.07,0-.13,0-.2,0,0,0,.01-.01.02-.01h.15s.02,0,.02.02Z"/>
        <path class="cls-14" d="M56.83,15.1s-.02,0-.02-.01v-.15s0-.01.02-.01c0,.06,0,.12,0,.18Z"/>
        <path class="cls-12" d="M56.18,14.03s.03.01.04.02c0,.02,0,.04.03.04.1.1.21.2.29.32l.1.19s.02.03.03.03c0,0,0,.02,0,.02-.03.05.05.24.04.4-.02.21-.07.42-.19.59s-.27.31-.45.4c-.06.03-.13.03-.19.05-.26.08-.54.06-.79-.05,0,0-.13-.1-.16-.09,0,0-.02,0-.02,0,0-.04-.04-.03-.05-.05l-.11-.11-.06-.07c-.09-.06-.14-.22-.18-.33-.02-.07-.06-.14-.07-.22v-.29s.03-.1.02-.15c0,0,0-.02,0-.03.03-.06.06-.13.07-.17,0-.01,0-.03.01-.04,0,0,.02,0,.02,0s0-.01,0-.02v-.02s.04-.02.04-.04h0s.01-.01.02-.01c0,0,0-.02,0-.02h0s.03-.01.03-.02,0-.02,0-.03c0-.03.02-.06.05-.07.03,0,.07-.02.06-.06h0s.05-.04.05-.07c0,0,.02,0,.02,0l.15-.08s.02-.03.04-.03c.04,0,.07-.02.09-.05.07,0,.13-.03.19-.06h.34c.06-.01.14,0,.2.02l.2.07s.08.05.12.05ZM54.58,15.4s.02.03,0,.04c.03.12.11.22.21.31.05.05.08.12.15.14.04.02.07.05.1.06l.26.11c.09.04.2.05.21,0,.06,0,.12.01.17,0,.02.03.06,0,.09,0,.09,0,.16-.03.24-.07.07-.04.16-.06.22-.13.06-.07.13-.11.19-.17.17-.2.24-.44.24-.71,0-.1-.03-.18-.05-.26-.02-.06-.02-.12-.05-.18-.04-.06-.06-.13-.11-.18-.1-.12-.21-.23-.36-.31l-.26-.09c-.16-.06-.63-.01-.7.07-.03.03-.07.04-.11.06-.08.04-.12.11-.19.16-.08.06-.13.13-.18.22s-.13.27-.14.36c-.02.15-.01.4.04.55,0,.02,0,.04.03.03Z"/>
        <path class="cls-3" d="M56.7,14.66s0,.02,0,.02v.04s0,.02.03.02v.04s-.02.02-.01.03c0,0,.02.01.02,0,.02.14.03.29-.01.44.01.05,0,.1-.03.15l-.11.22c-.13.21-.32.36-.53.47-.07,0-.12.05-.19.06h-.14c-.26.04-.58.02-.77-.15h-.03s0-.03,0-.04c.03-.01.15.08.16.09.25.11.53.12.79.05.06-.02.13-.03.19-.05.19-.08.34-.23.45-.4s.17-.38.19-.59c.01-.15-.07-.35-.04-.4h.03Z"/>
        <path class="cls-3" d="M55.49,13.84s.11.02.15,0c.03,0,.06,0,.09,0,0,.01,0,.03.02.03,0,0,.01,0,.02-.01h.02s0,.01,0,.02.02,0,.02,0l.28.09.07.03v.04s-.07-.04-.11-.05l-.2-.07c-.06-.02-.14-.03-.2-.03h-.34c-.06.05-.12.07-.19.07-.02.03-.05.05-.09.05-.02,0-.03.02-.04.03l-.15.08c.03-.08.14-.06.13-.13,0,0,.01,0,.02,0,0,0,.02,0,.03,0,0,0,.01-.01.01-.02h0c.06,0,.18-.05.16-.08h.03s.01.02.02.01c0,0,0-.02,0-.02h.02s.05,0,.06-.02c.02,0,.05,0,.07,0,.01,0,.02,0,.03-.01h.06Z"/>
        <path class="cls-3" d="M54.45,14.73c0,.05,0,.1-.03.15v.29c0,.08.05.15.07.22.04.11.08.27.18.33l.06.07.11.11s.06.01.05.05l-.08-.02s-.04-.04-.09-.1c-.03-.04-.07-.09-.1-.1l-.07-.1s0-.04-.03-.05c0,0,0-.03-.01-.04,0-.02-.01-.05-.04-.05v-.02c0-.05-.03-.09-.05-.14v-.04s-.01-.01-.03-.01v-.04s.01-.01.01-.01c0,0,0-.02,0-.01h-.02s0-.05,0-.05v-.31s.02-.06.02-.06c0,0,0-.02,0-.03.01-.01.02-.02.04-.03Z"/>
        <path class="cls-15" d="M54.9,15.96s.02,0,.02,0c0,0,0,.03,0,.03h.03c.19.18.51.2.77.17h.14c.07-.02.13-.07.19-.07,0,0,0,.03-.03.03-.05,0-.08.04-.13.05-.28.07-.59.05-.85-.06-.06-.02-.1-.08-.15-.1-.03-.02-.08-.03-.08-.07l.08.02Z"/>
        <path class="cls-3" d="M56.27,14.07s.02.02.04.02c0,.03.04.05.07.05,0,0,.02,0,.02.03,0,.03.02.04.04.06l.13.17s.03.13.09.16l.02.07v.02s-.03-.01-.04-.03l-.1-.19c-.08-.12-.19-.22-.29-.32-.02,0-.03-.02-.03-.04l.05.02Z"/>
        <path class="cls-15" d="M54.42,14.79v.06s-.02.31-.02.31c-.01,0-.02,0-.02-.03v-.31s.02-.04.02-.04c0,0,.01-.01.02,0Z"/>
        <path class="cls-15" d="M56.09,13.96l-.28-.09s-.02,0-.02,0,0-.02,0-.02c.02,0,.04,0,.06,0l.2.07s.04.01.04.04Z"/>
        <path class="cls-15" d="M54.71,14.22v.03s-.05.04-.05.07c-.02,0-.04.02-.04.04h0s-.02.01-.02.02c0,0,0,.01,0,.02h0s-.04.01-.04.01c0-.05.04-.08.07-.12.03-.03.04-.07.08-.07Z"/>
        <path class="cls-15" d="M56.66,14.55c-.06-.03-.05-.11-.09-.16l-.13-.17s-.04-.03-.04-.06c.02,0,.04.02.05.03.1.1.18.22.21.35Z"/>
        <path class="cls-15" d="M54.97,13.99c.01.07-.09.05-.13.13,0,0-.02,0-.02,0-.03,0-.05.04-.05.06h0s-.04.01-.04.01c0-.05.05-.08.09-.1l.15-.1Z"/>
        <path class="cls-15" d="M54.48,15.47s-.03-.03-.04-.05c-.03-.05-.04-.09-.04-.14.01,0,.02,0,.02.01v.04c.03.05.05.09.05.14Z"/>
        <path class="cls-3" d="M54.45,14.71s.01-.08.02-.11l.02-.05h.03s-.04.1-.07.16Z"/>
        <path class="cls-15" d="M54.47,14.59s-.03.07-.02.11c0,0,0,.02,0,.03-.02,0-.03.01-.04.03-.02-.03,0-.06.01-.09.01-.03,0-.07.04-.07Z"/>
        <path class="cls-15" d="M55.19,13.89s-.1.08-.16.08c.04-.04.1-.08.16-.08Z"/>
        <path class="cls-15" d="M55.64,13.84s-.11.02-.15,0c.05-.01.11-.02.15,0Z"/>
        <path class="cls-15" d="M56.27,14.07l-.05-.02s-.03-.01-.04-.02v-.04s.05.03.05.03c.02,0,.04.01.04.04Z"/>
        <path class="cls-3" d="M54.77,14.19s-.03.05-.06.06v-.03s.01,0,.02-.01c0,0,0-.01,0-.02h.04Z"/>
        <path class="cls-15" d="M54.73,15.83c-.05-.01-.09-.06-.1-.1.04.01.07.06.1.1Z"/>
        <path class="cls-15" d="M56.37,14.14s-.07-.02-.07-.05c.04,0,.06.03.07.05Z"/>
        <path class="cls-15" d="M54.53,14.47s0,.02,0,.03c0,.01,0,.02-.01.04h-.03s0-.06.04-.06Z"/>
        <path class="cls-15" d="M56.72,14.75s-.03,0-.03-.02v-.04s.03,0,.03.02v.04Z"/>
        <path class="cls-15" d="M55.32,13.86s-.05.03-.06.02c0-.01.02-.02.03-.03.01,0,.02,0,.03,0Z"/>
        <path class="cls-15" d="M54.56,15.63s-.03,0-.03-.03c0,0,0-.02,0-.03.02,0,.03.03.03.05Z"/>
        <path class="cls-15" d="M54.52,15.54s-.04-.03-.04-.05c.03,0,.04.03.04.05Z"/>
        <path class="cls-3" d="M54.6,14.41s-.02.04-.04.04v-.04s.04,0,.04,0Z"/>
        <path class="cls-15" d="M56.7,14.66h-.03s0-.02,0-.02v-.02s.03.02.03.04Z"/>
        <path class="cls-15" d="M56.73,14.82s-.02,0-.02,0c0-.01,0-.03.01-.03.01,0,.02.03,0,.04Z"/>
        <path class="cls-15" d="M55.77,13.85s-.01.01-.02.01c-.02,0-.02-.01-.02-.03.01,0,.03,0,.04.01Z"/>
        <path class="cls-15" d="M55.02,13.96s0,.02-.01.02c0,0-.02,0-.03,0,0-.02.02-.02.04-.02Z"/>
        <path class="cls-15" d="M54.4,15.24s-.01-.02-.01-.03h.02s.01.01,0,.01h-.01Z"/>
        <path class="cls-15" d="M55.24,13.88s0,.02,0,.02c0,0-.02,0-.02-.01,0-.01.01-.01.02-.01Z"/>
        <path class="cls-3" d="M54.56,14.47s0,.01,0,.02-.01.01-.02,0c0,0,0-.02,0-.03h.03Z"/>
        <path class="cls-15" d="M55.43,13.85s-.02.01-.03.01c0,0,0-.02,0-.02s.02,0,.02.01Z"/>
        <path class="cls-5" d="M55.68,16.06c-.05.01-.12,0-.17,0h-.14s-.12-.06-.12-.06c-.09-.01-.16-.08-.24-.11-.05-.02-.06-.03-.1-.07-.12-.12-.23-.25-.32-.39.02-.01,0-.03,0-.04,0-.03-.04-.09-.03-.12,0-.14-.06-.29.02-.56l.09-.2c.02-.05.06-.08.09-.12.02-.02.02-.04.05-.04,0,.05-.04.06-.07.1-.02.03-.04.07-.05.1l-.06.11c-.04.12-.06.25-.06.38,0,.03.03.06.02.1-.01.06.01.1.03.16.02.06.02.13.06.17l.18.22.16.16c.08.08.24.13.35.15.23.04.45,0,.65-.1.06-.03.1-.08.15-.11.07-.05.14-.09.18-.17l.1-.15c.1-.16.13-.47.08-.68l-.03-.07c-.01-.08-.05-.13-.08-.19-.14-.26-.45-.47-.74-.51l-.34.02c.06-.04.14-.03.21-.04.1-.02.17-.01.26.02.2.07.34.13.49.28.18.17.28.39.29.65,0,.07.01.12,0,.19l-.02.15-.08.21-.1.16c-.08.13-.2.24-.33.29l-.21.08-.18.05Z"/>
        <path class="cls-18" d="M55.68,16.06l.18-.05.21-.08c.14-.06.26-.17.33-.29l.1-.16.08-.21.02-.15c.01-.07,0-.13,0-.19,0-.25-.11-.47-.29-.65-.15-.15-.29-.21-.49-.28-.09-.03-.16-.04-.26-.02-.07.01-.15,0-.21.04,0,0-.02,0-.03,0-.06.01-.13.02-.19.05-.05.03-.1.07-.16.09-.03,0-.04.04-.04.06,0,0-.01.01-.02.01-.03,0-.05.01-.05.04h0s-.01,0-.02,0c-.01,0,0,.02-.01.02,0,0-.02.01-.02.03-.03,0-.04.02-.05.04-.03.04-.07.07-.09.12l-.09.2c-.08.27-.01.42-.02.56,0,.03.04.09.03.12-.02,0-.02-.02-.03-.03-.05-.14-.06-.4-.04-.55.01-.08.09-.26.14-.36s.1-.16.18-.22c.07-.05.11-.12.19-.16.04-.02.08-.03.11-.06.07-.08.54-.13.7-.07l.26.09c.15.08.25.19.36.31.05.06.07.12.11.18s.04.11.05.18c.02.09.05.17.05.26,0,.26-.07.51-.24.71-.07.06-.14.1-.19.17-.05.07-.14.09-.22.13-.08.04-.15.06-.24.07-.03,0-.07.03-.09,0Z"/>
        <path class="cls-18" d="M55.5,16.07c0,.05-.11.05-.21,0l-.26-.11s-.06-.04-.1-.06c-.06-.03-.1-.09-.15-.14-.09-.09-.18-.2-.21-.31.09.14.2.27.32.39.03.04.05.05.1.07.08.03.15.09.24.11l.12.04h.14Z"/>
        <path class="cls-3" d="M54.77,14.18s.03-.05.05-.06c0,.03-.02.06-.05.06Z"/>
        <path class="cls-3" d="M54.66,14.31s0,.02,0,.03-.02.02-.03.01c0-.02.02-.04.04-.04Z"/>
        <path class="cls-3" d="M54.62,14.37s0,.02,0,.02c0,0-.01,0-.02,0,0,0,0-.01,0-.02,0,0,.01-.01.02,0Z"/>
        <path class="cls-6" d="M54.81,14.36s.02-.02.02-.03c0,0,.02,0,.03,0,0,0,0-.01,0-.02h0s.05-.02.05-.05c0,0,.01,0,.02-.01.03,0,.05-.02.07-.03.03-.02.06-.03.08-.05.08-.09.18-.07.23-.13.01,0,.02,0,.03,0l.34-.02c.29.04.6.25.74.51.03.06.07.12.08.19l.03.07c.05.21.02.52-.08.68l-.1.15c-.04.09-.11.12-.18.17-.05.04-.09.09-.15.11-.21.09-.43.14-.65.1-.12-.02-.27-.07-.35-.15l-.16-.16-.18-.22s-.04-.12-.06-.17c-.02-.05-.04-.1-.03-.16,0-.04-.02-.07-.02-.1,0-.13.01-.26.06-.38l.06-.11s.03-.07.05-.1c.02-.03.07-.05.07-.1ZM55.88,14.13h-.04s0-.02-.02-.03c-.19-.06-.38-.04-.57.03-.08.03-.16.04-.21.12-.08,0-.11.07-.15.11-.05.06-.1.1-.14.17-.02.03-.04.06-.05.1l-.02.1c-.01.06-.06.11-.06.17v.19c0,.07.02.14.04.21l.06.16.08.12c.04.06.09.11.15.16l.1.1.14.06c.05.02.12.06.18.06h.32c.14,0,.25-.08.38-.13l.11-.1c.07-.05.12-.11.17-.17.04-.05.06-.1.08-.16.12-.23.1-.58-.02-.81-.06-.11-.14-.2-.24-.28-.06-.05-.12-.1-.2-.12-.03,0-.06-.05-.09-.04Z"/>
        <path class="cls-5" d="M55.32,14.03c-.05.06-.15.04-.23.13-.02.03-.05.04-.08.05-.02.01-.04.04-.07.03,0-.02.01-.05.04-.06.06-.02.1-.06.16-.09.06-.04.13-.04.19-.05Z"/>
        <path class="cls-5" d="M54.91,14.26s-.03.05-.05.04c0-.03.03-.04.05-.04Z"/>
        <path class="cls-5" d="M54.86,14.3s0,.01,0,.02c0,0-.02.01-.03,0,0,0,0-.02.01-.02,0,0,.01,0,.02,0Z"/>
        <path class="cls-1" d="M55.84,14.13h.04s0,.03.03.04l.13.07s.18.16.21.19c.08.09.2.35.21.45,0,.06.01.15,0,.21s-.03.09-.01.15c0,.05-.05.13-.07.18-.04.1-.12.16-.18.24-.05.06-.1.1-.18.13l-.19.09-.18.03c-.1.02-.21,0-.31-.03s-.21-.08-.3-.14c-.07-.04-.12-.11-.17-.16-.1-.1-.15-.22-.18-.36-.05-.2-.02-.41.07-.6.03-.06.06-.14.11-.19.03-.03.06-.08.1-.1l.18-.13s.22-.08.24-.04c-.02.02-.04.04-.04.06-.02,0-.04,0-.06.02l-.22.12s-.07.04-.09.06l-.13.18-.07.18h-.02s-.03.02-.04.03c-.03.04-.04.1-.01.15.01.02.04.03.05.02v.16s.39,0,.39,0h.09c.09,0,.14.05.17.13v.1s-.05.01-.07,0v-.1s-.03-.07-.07-.07h-.34s-.08,0-.08,0c-.01,0-.03,0-.04,0,0,.01-.02.04-.01.05l.06.12c.04.07.1.12.15.18.07.09.24.21.34.18,0,.03,0,.1.05.1h.24s.09,0,.12-.03l.05-.05c.05,0,.1-.03.15-.05.16-.07.37-.31.38-.49,0-.02-.05-.01-.06-.01h-.08s-.36,0-.36,0c-.06,0-.06.07-.06.11,0,0,0-.02-.02-.03v.05s-.03.02-.04,0v-.09c0-.09.1-.12.18-.12h.2s.26,0,.26,0c0-.02,0-.04,0-.06.02,0,.03,0,.06,0v-.16s0-.08,0-.08c0-.04-.03-.06-.06-.05l-.02-.08s-.03-.06-.05-.08l-.07-.09c-.09-.13-.21-.24-.37-.28l-.08-.03s-.02-.08-.06-.08h-.3s.01-.05.04-.05c.22-.02.32.03.39.02ZM55.78,15.84h0s0,.01,0,.01h0s0-.01,0-.01Z"/>
        <path class="cls-19" d="M55.84,14.13c-.06,0-.17-.05-.39-.02-.03,0-.05.03-.04.05h-.01s-.2.01-.24.04l-.18.13s-.07.07-.1.1c-.05.05-.08.13-.11.19-.1.19-.12.4-.07.6.03.14.09.26.18.36.05.06.1.12.17.16.09.05.19.12.3.14s.21.05.31.03l.18-.03.19-.09c.07-.03.13-.07.18-.13.06-.08.14-.15.18-.24.02-.06.06-.13.07-.18-.02-.06,0-.09.01-.15s.01-.15,0-.21c0-.1-.13-.36-.21-.45-.03-.03-.2-.18-.21-.19l-.13-.07s-.03-.02-.03-.04c.03,0,.06.04.09.04.09.03.14.07.2.12.1.08.17.17.24.28.13.23.15.58.02.81-.03.05-.05.11-.08.16-.05.06-.1.13-.17.17l-.11.1c-.12.05-.23.13-.38.13h-.32c-.06,0-.12-.04-.18-.06l-.14-.06-.1-.1c-.05-.05-.11-.09-.15-.16l-.08-.12-.06-.16c-.03-.06-.04-.14-.04-.21v-.19c0-.06.04-.11.06-.17l.02-.1s.03-.07.05-.1c.04-.07.09-.11.14-.17.04-.05.06-.11.15-.11.05-.08.14-.09.21-.12.18-.07.38-.1.57-.03.02,0,.02.02.02.03Z"/>
        <path class="cls-2" d="M55.78,14.24v.04s0,.1,0,.1c.07-.01.1.04.14.07.12.07.22.14.26.27,0,.03.04.05.02.09h-.34s-.08-.05-.09-.08c-.01-.04-.02-.05-.06-.05v-.45s-.29,0-.29,0v.45s-.06.02-.06.03v.07c-.06.02-.13.02-.19.02h-.24c0-.07.05-.11.07-.16.02-.05.05-.06.08-.1.06-.06.12-.11.21-.15.02,0,.03-.06.07-.05v-.06s0-.08,0-.08c0-.02.02-.04.04-.06h.01s.3,0,.3,0c.05,0,.06.05.06.08Z"/>
        <path class="cls-2" d="M56.21,15.22s-.03.08-.05.11l-.06.11s-.08.06-.11.11l-.07.03s-.08.06-.13.07v-.23s0-.1,0-.1c0-.04,0-.11.06-.11h.36Z"/>
        <path class="cls-11" d="M55.36,14.29v.06s-.05.04-.07.05c-.08.03-.15.08-.21.15-.03.03-.07.04-.08.1-.02.05-.07.09-.07.16h.24c.06,0,.14,0,.19-.02v-.07s.04-.02.06-.03v.08s-.01,0-.01.01c0,.05-.06.07-.1.1h-.53c-.01.05,0,.09,0,.13-.02,0-.04,0-.05-.02-.03-.05-.02-.11.01-.15.01,0,.02,0,.03,0,0,0,.01-.02,0-.03h.02c.12-.06.07-.23.24-.32.05-.11.2-.15.32-.18Z"/>
        <path class="cls-11" d="M56.36,14.81s.06.01.06.05v.08s-.04.02-.06,0v-.08s-.41,0-.41,0h-.04c-.09.01-.19-.03-.2-.12v-.07s.05.02.06.05c0,.03.06.07.09.07h.34s-.01-.06-.02-.08c-.05-.13-.14-.21-.26-.27-.04-.02-.08-.08-.14-.07v-.1c.06,0,.11.04.17.07.05.03.11.04.15.09l.15.21.07.15s.03.01.04,0Z"/>
        <path class="cls-2" d="M55.36,15.4v.24s-.11-.04-.11-.04l-.13-.09c-.06-.04-.09-.08-.12-.14-.02-.05-.06-.09-.06-.14h.34s.07.03.07.07v.1Z"/>
        <path class="cls-13" d="M55.77,15.83s0-.07,0-.11l.16-.05.14-.1.08-.1s.02-.08.07-.1l.06-.16s.06,0,.06.01c0,.19-.22.42-.38.49-.04.02-.09.06-.15.05l-.05.05Z"/>
        <path class="cls-13" d="M54.87,15.23l.06.13c.04.08.08.15.15.2l.16.12.12.04v.05c-.11.02-.27-.09-.34-.18-.05-.06-.11-.11-.15-.18l-.06-.12s0-.04.01-.05c.01-.01.03,0,.04,0Z"/>
        <path class="cls-11" d="M56.28,15.22l-.06.16s-.04.07-.07.1l-.08.1-.14.1-.16.05s0,0,0,0v-.06c.05,0,.1-.04.14-.07l.07-.03c.03-.05.09-.07.11-.11l.06-.11s.05-.07.05-.11h.08Z"/>
        <path class="cls-11" d="M54.95,15.22c0,.05.04.1.06.14.03.06.06.1.12.14l.13.09.1.04s0,0,0,.01v.07s-.12-.04-.12-.04l-.16-.12c-.07-.05-.12-.12-.15-.2l-.06-.13h.08Z"/>
        <path class="cls-13" d="M55.36,14.22v.08c-.12.03-.28.07-.32.18-.17.09-.13.26-.24.31l.07-.18.13-.18s.06-.05.09-.06l.22-.12s.03-.03.06-.02Z"/>
        <path class="cls-13" d="M56.36,14.81s-.03,0-.04,0l-.07-.15-.15-.21s-.1-.06-.15-.09c-.06-.04-.11-.06-.17-.07v-.04s.08.03.08.03c.16.04.28.15.37.28l.07.09s.04.05.05.08l.02.08Z"/>
        <path class="cls-13" d="M56.42,14.94v.16s-.04,0-.06,0v-.16s.04,0,.06,0Z"/>
        <path class="cls-13" d="M54.78,14.79s0,.02,0,.03c-.01,0-.02,0-.03,0,.01-.01.02-.02.04-.03Z"/>
        <rect class="cls-13" x="55.78" y="15.84" width="0" height="0" transform="translate(5.13 44.09) rotate(-45)"/>
        <g>
          <path class="cls-14" d="M55.69,14.72s.01.02.03.02c.01.09.11.14.2.12,0,.1,0,.25-.05.27h.03c-.08.01-.17.04-.18.13v.09s0,.07,0,.07c0,0-.01,0-.02,0,0,0,0,.02,0,.03l-.05-.04c-.05,0-.11-.01-.16,0-.01,0-.03.04-.04.03,0-.06.01-.12,0-.18-.03-.08-.08-.13-.17-.13-.02-.07-.02-.18.02-.25l-.12-.02h.13s.02-.02.03-.02c.04-.02.1-.04.1-.1h.01s.01-.04.01-.06c.08.01.17,0,.25,0Z"/>
          <path class="cls-20" d="M55.16,14.89l.12.02c-.04.07-.04.19-.02.25h-.09s0-.01,0-.01c0,0-.01,0-.02,0h-.24s.02-.03.03-.04c-.03-.09.01-.16-.04-.21h.25Z"/>
          <path class="cls-9" d="M56.36,14.94v.16s0,.04,0,.06h-.26s0-.04.01-.06c.03-.08-.01-.15.03-.21h-.17s-.01-.01-.01-.02h.4s0,.07,0,.07ZM56.35,14.89s-.06-.01-.09,0c0,0,0,0,0,0,.03,0,.05,0,.08,0Z"/>
          <path class="cls-9" d="M55.44,15.46v.15c.08-.03.21-.02.22,0s0,.03.03.05v-.19s0-.02.01-.03c0,0,.01,0,.02,0v.09s0,.2,0,.2v.08s-.29,0-.29,0v-.14s0-.27,0-.27v-.1c.02.06.01.12.01.18Z"/>
          <path class="cls-20" d="M55.95,14.87s0,.01.01.01h.17c-.05.06,0,.14-.03.21-.01.02-.02.05-.01.06h-.2s-.03-.02-.03-.02c.06-.02.05-.17.05-.27h.04Z"/>
          <path class="cls-9" d="M55.31,14.87s-.01.02-.03.02h-.13s-.25,0-.25,0c.05.05,0,.12.04.21-.02.01-.03.02-.03.04h.24s.02,0,.02,0c0,0,0,.01,0,.02h-.39s0-.16,0-.16c0-.04,0-.08,0-.13h.53Z"/>
          <path class="cls-12" d="M55.42,15.67v.14s.29,0,.29,0v-.08s.06,0,.06,0c0,0,0,0,0,0,0,.03,0,.07,0,.11-.03.03-.07.04-.12.04h-.24s-.05-.07-.05-.1v-.05s0-.07,0-.07c.02,0,.04.01.07.01Z"/>
          <path class="cls-5" d="M55.42,15.39v.27s-.05,0-.07-.01c0,0,0,0,0-.01v-.24s.05,0,.07,0Z"/>
          <path class="cls-6" d="M55.78,15.34v.1s-.01,0-.02,0c0,0,0,.02,0,.04v.04s-.02.01-.04,0v-.09s0-.07,0-.07c.01.01.03,0,.04,0v-.05s.02.02.03.03Z"/>
          <path class="cls-9" d="M55.72,14.68v.07s-.03-.01-.03-.02v-.33c-.08.02-.15,0-.24,0v.32s0,.03-.02.04v-.08s0-.45,0-.45h.29s0,.45,0,.45ZM55.45,14.24h-.01v.11h.01v-.11Z"/>
          <path class="cls-20" d="M55.69,14.72c-.08,0-.17,0-.25,0v-.32c.09,0,.17,0,.25,0v.33Z"/>
          <path class="cls-20" d="M55.69,15.47v.19s-.03-.04-.04-.05-.14-.02-.22,0v-.15s.03-.03.04-.03c.05-.01.11,0,.16,0l.05.04Z"/>
          <path class="cls-2" d="M55.41,14.77s0-.01.01-.01h-.01Z"/>
          <path class="cls-5" d="M55.78,15.44v.23s0,.06,0,.06h-.06s0-.2,0-.2c.01,0,.03,0,.03,0v-.04s0-.03.01-.04c0,0,.01,0,.02,0Z"/>
          <path class="cls-20" d="M56.35,14.89s-.06,0-.08,0c0,0,0,0,0,0,.03,0,.07-.01.09,0Z"/>
          <rect class="cls-20" x="55.44" y="14.24" width=".01" height=".11"/>
        </g>
      </g>
    </g>
  </g>
</svg>